<?xml version="1.0" encoding="UTF-8"?>
<svg version="1.1" xmlns="http://www.w3.org/2000/svg" width="512" height="512">
<path d="M0 0 C1.47654513 -0.00807831 1.47654513 -0.00807831 2.98291945 -0.01631981 C6.25467333 -0.03053502 9.52601894 -0.02351166 12.79779053 -0.01637268 C15.15403568 -0.02207939 17.51027806 -0.02904482 19.86651611 -0.03717041 C26.24632867 -0.05507798 32.62600351 -0.05393857 39.00583363 -0.04822803 C45.00910463 -0.0447427 51.01235874 -0.052703 57.01562449 -0.05958868 C69.62492271 -0.07329162 82.23415875 -0.06789019 94.84345552 -0.05640347 C106.37511121 -0.0464597 117.90660671 -0.05943533 129.4382377 -0.08333766 C141.29243002 -0.10772286 153.14654771 -0.11733881 165.00076461 -0.11068493 C171.65080169 -0.10719318 178.30073117 -0.10975785 184.95075226 -0.12693596 C191.19875554 -0.14237262 197.44645174 -0.13848575 203.69444275 -0.11963081 C205.98821198 -0.1159367 208.28200381 -0.11907722 210.57575226 -0.1295166 C213.70450389 -0.14267059 216.83223034 -0.13122817 219.9609375 -0.11352539 C220.87046685 -0.1231304 221.77999619 -0.1327354 222.71708703 -0.14263147 C230.9128815 -0.04707854 235.05786628 3.47024432 240.76245117 9.16966248 C241.23169156 9.63578288 241.70093194 10.10190329 242.18439174 10.58214855 C243.74127911 12.13111629 245.29098757 13.68706426 246.84075928 15.2431488 C247.96112447 16.36080153 249.08191417 17.47802886 250.20309448 18.59486389 C253.23638689 21.61906262 256.26334782 24.64952447 259.2889185 27.68144608 C262.45869829 30.85629899 265.63336577 34.02625848 268.80725098 37.19700623 C274.13354675 42.51966725 279.45562003 47.84652298 284.77532959 53.17576599 C290.92575762 59.33708879 297.08337255 65.49115851 303.24474835 71.64153194 C308.53771463 76.92542471 313.82677651 82.21320194 319.1125896 87.50425053 C322.26836005 90.66313887 325.42546597 93.82066062 328.58609772 96.97468567 C331.55536002 99.93817385 334.5196931 102.90650578 337.48028183 105.87865829 C338.5677911 106.96881329 339.6570082 108.05726764 340.74804306 109.1438942 C342.23619614 110.62658736 343.71805998 112.11529526 345.19848633 113.60569763 C346.02952503 114.43749039 346.86056374 115.26928314 347.71678543 116.12628174 C351.28190967 120.13787631 351.9766653 122.99150455 351.98377037 128.34366608 C351.99021926 129.57038513 351.99666816 130.79710418 352.00331247 132.06099653 C352.00037009 133.42440806 351.99723464 134.78781917 351.993927 136.15122986 C351.99766263 137.59806191 352.00226379 139.04489195 352.00765765 140.49171877 C352.01991477 144.47289106 352.01962398 148.45397949 352.0172689 152.43516636 C352.01686139 156.72713077 352.02789377 161.01906806 352.03738403 165.3110199 C352.05401171 173.72334799 352.05949445 182.13564807 352.06060879 190.54799122 C352.06155877 197.38799593 352.06566661 204.22799138 352.07201004 211.06799316 C352.08963012 230.46238731 352.09884814 249.85675931 352.09734909 269.25116152 C352.09726918 270.29716966 352.09718927 271.34317781 352.09710693 272.42088318 C352.09702517 273.46816985 352.09694341 274.51545652 352.09685917 275.59447914 C352.09604687 292.5543217 352.11516842 309.51407531 352.14338367 326.47389215 C352.17212882 343.88983419 352.18592295 361.30573288 352.18419611 378.72169924 C352.1835326 388.49857619 352.18900755 398.27536 352.21055222 408.05221558 C352.22878585 416.38001265 352.23309373 424.70767441 352.21953337 433.03548282 C352.21301368 437.28205076 352.21285001 441.52835926 352.23023987 445.77490234 C352.24602103 449.66881883 352.243056 453.5622713 352.2256716 457.45617682 C352.22261265 458.85868619 352.22619216 460.26123062 352.23739175 461.66369861 C352.35374206 477.27823518 348.03591751 488.68905828 337.41400146 500.13768005 C326.65167696 510.32345146 314.69955372 512.84608002 300.30441284 512.77536011 C298.96789475 512.77954016 297.63138021 512.78502134 296.29487216 512.79167992 C292.64645144 512.80606541 288.99825794 512.80191159 285.34982514 512.79451311 C281.40560966 512.78976653 277.46144229 512.80230442 273.51724243 512.81253052 C265.79954862 512.82969488 258.08193632 512.83056343 250.36422838 512.82531761 C244.08881756 512.8212702 237.81343077 512.82272626 231.53802109 512.82806587 C230.64362362 512.82881429 229.74922615 512.82956272 228.82772573 512.83033382 C227.01054184 512.83186535 225.19335796 512.8334037 223.37617408 512.83494879 C206.34876279 512.84866533 189.32139749 512.84324213 172.29398726 512.83176357 C156.73128833 512.82183256 141.16870832 512.83477109 125.60602774 512.85869776 C109.6091853 512.8831058 93.61239821 512.89269242 77.61553752 512.88604504 C68.64135268 512.88255655 59.66725926 512.88476041 50.69308853 512.90229607 C43.05346398 512.91703939 35.41399523 512.91762573 27.77437367 512.90022516 C23.88015755 512.89173018 19.98621952 512.8895285 16.09201813 512.90487671 C12.52029155 512.91877913 8.94907983 512.9138904 5.37738262 512.89463747 C3.48789552 512.88913406 1.59838184 512.90310261 -0.29105461 512.91799158 C-14.71439268 512.79450804 -25.52802459 507.81277513 -36.02349854 498.07518005 C-47.4792163 485.97102543 -48.72118595 472.58230631 -48.66117859 456.71363831 C-48.66535517 454.91514373 -48.67083446 453.11665179 -48.6774984 451.31816471 C-48.69192918 446.39278657 -48.68771566 441.46757611 -48.68033159 436.54218888 C-48.67559637 431.22373278 -48.68811291 425.90531277 -48.698349 420.58686829 C-48.71553539 410.17407191 -48.71637733 399.76133588 -48.7111361 389.348529 C-48.70709286 380.88395141 -48.70853979 372.41939165 -48.71388435 363.95481491 C-48.71463278 362.74957698 -48.7153812 361.54433906 -48.7161523 360.30257877 C-48.71768379 357.85405088 -48.71922214 355.405523 -48.72076727 352.95699511 C-48.73449174 330.00085406 -48.72905499 307.0447471 -48.71758205 284.08860682 C-48.70764981 263.09403751 -48.72059032 242.09955634 -48.74451625 221.10500063 C-48.76890743 199.53946027 -48.77851506 177.97396097 -48.77186352 156.40840709 C-48.76837134 144.30431548 -48.77060335 132.20029165 -48.78811455 120.09621048 C-48.80283672 109.79227961 -48.80347168 99.48846424 -48.78604364 89.18453564 C-48.77753147 83.92936567 -48.77538955 78.67440206 -48.79069519 73.41924286 C-48.80454552 68.60407844 -48.79977451 63.78929709 -48.78045595 58.97415482 C-48.77669672 57.23670236 -48.77961567 55.49921919 -48.79006761 53.76179411 C-48.88268173 37.18129113 -45.44079644 25.0109528 -33.96099854 12.63768005 C-24.3365455 3.52882272 -13.03888601 -0.08701281 0 0 Z " fill="#20D29C" transform="translate(104.27349853515625,-0.3876800537109375)"/>
<path d="M0 0 C-0.27714844 0.72445313 -0.55429688 1.44890625 -0.83984375 2.1953125 C-1.20207031 3.16210938 -1.56429687 4.12890625 -1.9375 5.125 C-2.29714844 6.07632812 -2.65679687 7.02765625 -3.02734375 8.0078125 C-4.62575744 12.92502087 -5.12482887 17.65001897 -5.14044189 22.80335999 C-5.14615204 23.93926575 -5.15186218 25.07517151 -5.15774536 26.24549866 C-5.15886322 27.47811935 -5.15998108 28.71074005 -5.16113281 29.98071289 C-5.16609772 31.29075287 -5.17106262 32.60079285 -5.17617798 33.95053101 C-5.18926554 37.54085088 -5.19574302 41.13115206 -5.20018864 44.72149205 C-5.20313299 46.97877893 -5.20724087 49.23606089 -5.21169281 51.49334526 C-5.22537514 58.59526674 -5.23503102 65.69717674 -5.2388947 72.79911047 C-5.24333917 80.91959712 -5.26071322 89.03991238 -5.2898953 97.16034704 C-5.31179264 103.4801929 -5.32161407 109.79999166 -5.32293582 116.11987489 C-5.32396667 119.87164605 -5.32949068 123.62325646 -5.34775543 127.37498665 C-5.46143471 152.14921332 -4.20716753 176.66463824 0.8125 201 C1.20042725 202.9327478 1.20042725 202.9327478 1.59619141 204.90454102 C3.84026882 215.79395723 6.63357639 226.40925132 10 237 C10.42853271 238.3914624 10.42853271 238.3914624 10.86572266 239.81103516 C25.69287377 287.83306158 51.15259424 333.24627158 85.75 369.8515625 C88.60184332 372.97433093 90.4500727 375.75880807 92.0625 379.6875 C93.70667121 383.65642149 95.23335634 385.72249453 99 388 C100.09570312 388.42539062 101.19140625 388.85078125 102.3203125 389.2890625 C106.09413361 390.88524359 108.62345512 393.12366589 111.5625 396 C118.02719517 402.14954384 124.87499808 407.63697969 132 413 C132.67272949 413.50789063 133.34545898 414.01578125 134.03857422 414.5390625 C184.01552078 452.03620328 241.39012836 474.43925309 303.12939453 482.609375 C305.51976104 482.93465025 307.89717067 483.29633436 310.27734375 483.6875 C317.37571362 484.74236611 324.42333506 485.11569041 331.59375 485.1171875 C332.74423073 485.12140213 332.74423073 485.12140213 333.91795349 485.1257019 C341.6123145 485.1455438 349.30616023 485.08564082 357 485 C356.0712467 486.42548871 355.13808273 487.84810422 354.203125 489.26953125 C353.42437012 490.45832886 353.42437012 490.45832886 352.62988281 491.67114258 C345.70246416 501.56938202 335.69436386 507.43782304 324 510 C319.52215977 510.41270733 315.07240445 510.40976043 310.57791138 510.38768005 C309.24139328 510.3918601 307.90487874 510.39734129 306.5683707 510.40399987 C302.91994998 510.41838536 299.27175648 510.41423154 295.62332368 510.40683305 C291.6791082 510.40208648 287.73494083 510.41462437 283.79074097 510.42485046 C276.07304716 510.44201483 268.35543485 510.44288337 260.63772692 510.43763756 C254.3623161 510.43359014 248.0869293 510.4350462 241.81151962 510.44038582 C240.46992342 510.44150845 240.46992342 510.44150845 239.10122427 510.44265376 C237.28404038 510.4441853 235.46685649 510.44572365 233.64967261 510.44726873 C216.62226132 510.46098528 199.59489603 510.45556208 182.56748579 510.44408352 C167.00478687 510.4341525 151.44220686 510.44709104 135.87952627 510.47101771 C119.88268383 510.49542575 103.88589674 510.50501236 87.88903606 510.49836498 C78.91485121 510.49487649 69.94075779 510.49708035 60.96658707 510.51461601 C53.32696251 510.52935933 45.68749377 510.52994568 38.0478722 510.5125451 C34.15365609 510.50405012 30.25971806 510.50184845 26.36551666 510.51719666 C22.79379009 510.53109908 19.22257837 510.52621035 15.65088116 510.50695742 C13.76139406 510.501454 11.87188038 510.51542255 9.98244393 510.53031152 C-4.44089414 510.40682799 -15.25452606 505.42509508 -25.75 495.6875 C-37.20571777 483.58334538 -38.44768741 470.19462625 -38.38768005 454.32595825 C-38.39185663 452.52746367 -38.39733592 450.72897173 -38.40399987 448.93048465 C-38.41843064 444.00510652 -38.41421713 439.07989605 -38.40683305 434.15450883 C-38.40209783 428.83605273 -38.41461438 423.51763272 -38.42485046 418.19918823 C-38.44203685 407.78639185 -38.44287879 397.37365582 -38.43763756 386.96084894 C-38.43359432 378.49627136 -38.43504125 370.03171159 -38.44038582 361.56713486 C-38.44113424 360.36189693 -38.44188266 359.156659 -38.44265376 357.91489872 C-38.44418526 355.46637083 -38.44572361 353.01784294 -38.44726873 350.56931506 C-38.46099321 327.61317401 -38.45555645 304.65706704 -38.44408352 281.70092677 C-38.43415128 260.70635746 -38.44709178 239.71187629 -38.47101771 218.71732058 C-38.49540889 197.15178022 -38.50501652 175.58628091 -38.49836498 154.02072704 C-38.49487281 141.91663543 -38.49710481 129.8126116 -38.51461601 117.70853043 C-38.52933818 107.40459955 -38.52997315 97.10078419 -38.5125451 86.79685558 C-38.50403294 81.54168562 -38.50189102 76.28672201 -38.51719666 71.03156281 C-38.53104698 66.21639839 -38.52627598 61.40161704 -38.50695742 56.58647476 C-38.50319819 54.8490223 -38.50611713 53.11153914 -38.51656907 51.37411405 C-38.6091832 34.79361107 -35.16729791 22.62327275 -23.6875 10.25 C-17.75586834 4.59891849 -8.44452664 -2.46148968 0 0 Z " fill="#19B589" transform="translate(94,2)"/>
<path d="M0 0 C1.09441406 -0.02513672 1.09441406 -0.02513672 2.2109375 -0.05078125 C7.65595444 0.7686145 11.51756752 3.82961881 15.31347656 7.62866211 C16.18748108 8.49643784 17.0614856 9.36421356 17.9619751 10.25828552 C18.88717957 11.19269974 19.81238403 12.12711395 20.765625 13.08984375 C21.73823776 14.06297582 22.71137066 15.03558828 23.68499756 16.00770569 C25.71696276 18.03976029 27.74368983 20.07685331 29.76660156 22.11791992 C32.35614059 24.7301903 34.9566561 27.33119398 37.56094742 29.92874813 C39.56879465 31.93325072 41.57161494 33.94271439 43.57286835 35.95379829 C44.99416629 37.38079894 46.41896335 38.80431168 47.84381104 40.22776794 C48.70520691 41.09869583 49.56660278 41.96962372 50.45410156 42.86694336 C51.21321838 43.63066757 51.97233521 44.39439178 52.75445557 45.18125916 C56.42680356 49.3654196 57.02242507 52.6401888 56.87109375 58.0703125 C56.33890144 62.91917581 54.2023332 66.00150758 50.625 69.125 C47.10280205 71.69326934 44.57644589 72.48507777 40.3125 72.625 C39.20455078 72.68107422 39.20455078 72.68107422 38.07421875 72.73828125 C31.93144037 71.67039793 27.41506338 66.36125677 23.25 62.0625 C22.70472656 61.50820312 22.15945313 60.95390625 21.59765625 60.3828125 C20.26877023 59.03061269 18.94621452 57.6721965 17.625 56.3125 C17.61620064 57.72071518 17.61620064 57.72071518 17.60722351 59.15737915 C17.54995299 68.01479587 17.47716878 76.8719681 17.38928509 85.72913551 C17.34460172 90.28245898 17.30534114 94.83569339 17.27856445 99.38916016 C17.25251115 103.78542669 17.21209447 108.18135017 17.16181374 112.57740402 C17.14515871 114.2526357 17.13363594 115.92792671 17.12738609 117.60322952 C17.11772997 119.9541119 17.08965391 122.30411932 17.05737305 124.65478516 C17.05952568 125.68841187 17.05952568 125.68841187 17.0617218 126.74291992 C16.96054562 131.96970609 15.68265002 136.05658683 12.125 139.95703125 C6.71779135 144.16733174 2.34606323 145.14112423 -4.375 144.3125 C-9.6785228 141.61070537 -13.47332298 138.01753105 -15.375 132.3125 C-15.49429387 129.86506014 -15.56018708 127.4438213 -15.58032227 124.99536133 C-15.59022186 124.25365189 -15.60012146 123.51194244 -15.61032104 122.74775696 C-15.64190257 120.29671417 -15.66668021 117.845652 -15.69140625 115.39453125 C-15.71197867 113.69487505 -15.73297522 111.99522393 -15.75437927 110.295578 C-15.8095702 105.82235837 -15.85899262 101.34909279 -15.90722656 96.87579346 C-15.95746332 92.31103426 -16.01313804 87.74634177 -16.06835938 83.18164062 C-16.17590452 74.22531741 -16.2773576 65.26893627 -16.375 56.3125 C-16.77291748 56.72612793 -17.17083496 57.13975586 -17.58081055 57.56591797 C-19.40000909 59.44773816 -21.23103822 61.31761595 -23.0625 63.1875 C-24.00125977 64.16396484 -24.00125977 64.16396484 -24.95898438 65.16015625 C-29.48897646 69.76130005 -33.13568113 72.56848362 -39.8125 72.6875 C-44.35991047 72.57419243 -46.88106256 71.31891128 -50.375 68.3125 C-53.89950281 64.31171302 -55.53455516 61.87532073 -55.6875 56.5625 C-55.72488281 55.72203125 -55.76226562 54.8815625 -55.80078125 54.015625 C-54.58751463 46.31305159 -46.95432288 40.60283827 -41.71875 35.390625 C-40.76968685 34.44021254 -39.8209206 33.48950354 -38.87243652 32.53851318 C-36.89198451 30.5551253 -34.90799264 28.5753679 -32.92138672 26.59814453 C-30.37924754 24.06743024 -27.84623566 21.52779961 -25.31578827 18.98540115 C-23.3617039 17.0240832 -21.40287304 15.06756162 -19.44258118 13.11244965 C-18.05289402 11.72473825 -16.66722132 10.33301042 -15.28161621 8.94122314 C-14.01009705 7.67916046 -14.01009705 7.67916046 -12.71289062 6.39160156 C-11.96994751 5.65024963 -11.22700439 4.90889771 -10.46154785 4.14508057 C-7.12060872 1.21078883 -4.43539477 0.02334418 0 0 Z " fill="#E6F7FB" transform="translate(255.375,191.6875)"/>
<path d="M0 0 C4.0577771 0.53797807 5.93089055 2.55381167 8.77093506 5.38998413 C9.23579417 5.85016328 9.70065329 6.31034242 10.17959905 6.78446639 C11.73599807 8.32889564 13.28144965 9.88383203 14.82714844 11.43896484 C15.94040344 12.54815509 17.05429573 13.65670604 18.16877747 14.7646637 C21.19409864 17.77629572 24.20983821 20.79735574 27.22356319 23.82058668 C30.37545399 26.98006385 33.5346475 30.132225 36.69268799 33.28555298 C41.99405965 38.58146491 47.28906992 43.88367553 52.58056641 49.18945312 C58.7041245 55.32934652 64.83842691 61.45834605 70.97840667 67.58181417 C76.24511542 72.8349243 81.50597436 78.09383913 86.76195741 83.35768092 C89.90324758 86.50365545 93.0465468 89.64755055 96.19512177 92.78623581 C99.15348956 95.73595955 102.10446386 98.69288323 105.04981041 101.65560722 C106.13405535 102.74383037 107.22088252 103.82948749 108.31041145 104.91242027 C109.79296845 106.38682454 111.26604423 107.87008296 112.73699951 109.35604858 C113.56510509 110.18528524 114.39321068 111.0145219 115.24641037 111.86888695 C117 114 117 114 117 117 C103.56101238 117.06954327 90.12206765 117.12283343 76.68293667 117.15543652 C70.44244971 117.1710852 64.20208597 117.19230925 57.96166992 117.22631836 C51.93812411 117.25893973 45.91469675 117.27685902 39.89106941 117.28463173 C37.59418944 117.2901702 35.29731586 117.30098547 33.00048637 117.31719017 C29.78069987 117.33900092 26.56140136 117.34196534 23.34155273 117.34057617 C22.39424286 117.351362 21.44693298 117.36214783 20.47091675 117.3732605 C14.27759455 117.34439041 9.13328238 116.69771397 4.2578125 112.5 C1.20779631 108.46135787 -0.12625899 105.67877739 -0.12025452 100.6530304 C-0.12162918 99.76542023 -0.12300385 98.87781006 -0.12442017 97.96330261 C-0.12082489 96.99226089 -0.11722961 96.02121918 -0.11352539 95.02075195 C-0.11367142 93.99618896 -0.11381744 92.97162598 -0.1139679 91.91601562 C-0.11327023 88.5234161 -0.10548462 85.13087121 -0.09765625 81.73828125 C-0.09579155 79.3884433 -0.09436789 77.03860496 -0.09336853 74.68876648 C-0.08954743 68.49916514 -0.0797206 62.3095872 -0.06866455 56.11999512 C-0.05844169 49.80591142 -0.05386903 43.49182396 -0.04882812 37.17773438 C-0.03809799 24.78514596 -0.02102643 12.39257492 0 0 Z " fill="#31E9AC" transform="translate(336,3)"/>
<path d="M0 0 C1.51828651 -0.00856522 1.51828651 -0.00856522 3.06724548 -0.01730347 C4.18206802 -0.01842133 5.29689056 -0.01953918 6.44549561 -0.02069092 C7.61633194 -0.02565582 8.78716827 -0.03062073 9.9934845 -0.03573608 C13.21061436 -0.04785789 16.42770786 -0.05530667 19.64485645 -0.05974674 C21.65536849 -0.06267728 23.66587481 -0.06678212 25.67638397 -0.07125092 C31.96829078 -0.08492952 38.26018454 -0.09459357 44.55210519 -0.09845281 C51.81201223 -0.10293025 59.07173069 -0.12046188 66.3315804 -0.1494534 C71.94441082 -0.17108825 77.55718826 -0.1811581 83.17005992 -0.18249393 C86.52154076 -0.18354096 89.87284442 -0.18942647 93.22428131 -0.20731354 C96.96613362 -0.22435416 100.70752657 -0.22249815 104.44940186 -0.21600342 C105.55612747 -0.2252182 106.66285309 -0.23443298 107.80311584 -0.243927 C114.13643534 -0.20946462 118.99780549 0.14539701 123.85076904 4.67559814 C128.20384791 10.36808589 128.9957758 14.01266824 128.20623779 21.14044189 C125.9938134 25.56529068 123.25824164 28.33520847 119.20623779 31.14044189 C116.26762656 32.11997897 114.35490782 32.27276911 111.29222107 32.28761292 C110.2786554 32.29476822 109.26508972 32.30192352 108.22080994 32.30929565 C107.10958267 32.31198456 105.99835541 32.31467346 104.85345459 32.31744385 C103.09698105 32.32730064 103.09698105 32.32730064 101.30502319 32.33735657 C97.42184094 32.35710143 93.5386722 32.36875608 89.65545654 32.37872314 C88.31737561 32.38277159 86.97929488 32.38688854 85.64121437 32.39107323 C79.35465394 32.4101187 73.06810522 32.42435141 66.7815215 32.4326852 C59.53005892 32.44245744 52.27890161 32.46877894 45.02754658 32.50918609 C39.41894356 32.53936451 33.81042796 32.55415566 28.20174533 32.55746621 C24.85349829 32.55981469 21.50583648 32.5707249 18.15762901 32.59392738 C14.4205722 32.61821757 10.68431582 32.61737187 6.94720459 32.6104126 C5.84205002 32.62322266 4.73689545 32.63603271 3.59825134 32.64923096 C-2.53069857 32.6075898 -6.13995284 32.25384157 -10.79376221 28.14044189 C-15.09603811 23.37305509 -16.15658723 19.70296895 -16.07501221 13.42169189 C-15.48556832 8.64064703 -12.64555424 5.89083012 -9.16876221 2.82794189 C-5.79565191 0.43125826 -4.08911003 0.01378077 0 0 Z " fill="#E7F7FB" transform="translate(199.79376220703125,359.85955810546875)"/>
<path d="M0 0 C0.84736221 -0.0049649 1.69472443 -0.00992981 2.56776428 -0.01504517 C5.38022669 -0.02968795 8.19263263 -0.03647351 11.00512695 -0.04199219 C12.95848085 -0.04774341 14.91183474 -0.05350115 16.8651886 -0.05926514 C20.96676904 -0.06978218 25.06832984 -0.07561974 29.16992188 -0.07910156 C34.41782438 -0.08457732 39.66546624 -0.10858274 44.91328716 -0.13707352 C48.95140836 -0.15573009 52.98946729 -0.16090718 57.02762794 -0.16243744 C58.96166211 -0.16545941 60.8956953 -0.17347253 62.82968712 -0.18662262 C65.54160507 -0.20374059 68.25289319 -0.20178848 70.96484375 -0.1953125 C72.1566777 -0.20913467 72.1566777 -0.20913467 73.37258911 -0.22323608 C79.13006516 -0.18032226 84.03773244 0.77777072 88.5480957 4.66113281 C92.31445473 9.64831166 93.22188993 12.92140692 92.8059082 19.16113281 C90.98717351 25.02150015 88.7141174 27.75543663 83.8059082 31.16113281 C79.88464913 32.61764636 75.69462434 32.31634283 71.56835938 32.32226562 C70.74021225 32.32723053 69.91206512 32.33219543 69.05882263 32.33731079 C66.32216558 32.35190216 63.5855665 32.35872941 60.84887695 32.36425781 C58.94322203 32.3700118 57.03756713 32.3757695 55.13191223 32.38153076 C51.13644135 32.39203217 47.14099055 32.39788045 43.14550781 32.40136719 C38.03442247 32.40684977 32.9236038 32.43087643 27.81260204 32.45933914 C23.87570936 32.47799434 19.93888055 32.48317266 16.0019474 32.48470306 C14.11815241 32.48772366 12.23435839 32.49573211 10.35060692 32.50888824 C7.71074705 32.52600888 5.07153401 32.52405389 2.43164062 32.51757812 C1.65892822 32.52679291 0.88621582 32.53600769 0.09008789 32.54550171 C-5.60320738 32.50191599 -10.48063797 31.49738005 -14.9362793 27.66113281 C-19.03737905 22.23071107 -20.01775605 17.84196507 -19.1940918 11.16113281 C-14.75096236 2.43943429 -9.24431479 0.01284222 0 0 Z " fill="#31E9AC" transform="translate(203.194091796875,-0.1611328125)"/>
<path d="M0 0 C3.41318267 2.78349697 5.89606172 5.36330893 6.86328125 9.76953125 C7.36960822 15.23786248 6.5318035 18.96619119 3.86328125 23.76953125 C0.41581916 27.63741555 -1.94308485 29.03651212 -7.07421875 29.76953125 C-11.8031101 30.00384569 -15.02556577 29.26846738 -19.13671875 26.76953125 C-22.94929136 23.13520878 -24.97664575 19.85048024 -25.38671875 14.51953125 C-25.01022425 8.8721137 -23.47559975 4.66207705 -19.19921875 0.89453125 C-13.50091583 -3.05939322 -6.15553147 -3.54477589 0 0 Z " fill="#31E9AC" transform="translate(153.13671875,2.23046875)"/>
</svg>
